<svg xmlns="http://www.w3.org/2000/svg" version="1.1" xmlns:xlink="http://www.w3.org/1999/xlink" xmlns:svgjs="http://svgjs.com/svgjs" width="400" height="400" preserveAspectRatio="none" viewBox="0 0 400 400"><g mask="url(&quot;#SvgjsMask1038&quot;)" fill="none"><path d="M-20.29 278.38L-20.29 278.38" stroke="rgba(75, 207, 103, 1)" stroke-width="1.5"></path><path d="M-20.29 278.38L-22.53 318.24" stroke="rgba(75, 207, 103, 1)" stroke-width="1.5"></path><path d="M-20.29 278.38L12.7 313.43" stroke="rgba(75, 207, 103, 1)" stroke-width="1.5"></path><path d="M-20.29 278.38L34.11 273.63" stroke="rgba(75, 207, 103, 1)" stroke-width="1.5"></path><path d="M-20.29 278.38L72.58 282.12" stroke="rgba(75, 207, 103, 1)" stroke-width="1.5"></path><path d="M-22.53 318.24L-22.53 318.24" stroke="rgba(75, 207, 103, 1)" stroke-width="1.5"></path><path d="M-22.53 318.24L12.7 313.43" stroke="rgba(75, 207, 103, 1)" stroke-width="1.5"></path><path d="M-25.87 382.11L-25.87 382.11" stroke="rgba(75, 207, 103, 1)" stroke-width="1.5"></path><path d="M-25.87 382.11L25.44 378.67" stroke="rgba(75, 207, 103, 1)" stroke-width="1.5"></path><path d="M-25.87 382.11L21.44 413.55" stroke="rgba(75, 207, 103, 1)" stroke-width="1.5"></path><path d="M-25.87 382.11L-22.53 318.24" stroke="rgba(75, 207, 103, 1)" stroke-width="1.5"></path><path d="M-25.87 382.11L12.7 313.43" stroke="rgba(75, 207, 103, 1)" stroke-width="1.5"></path><path d="M34.11 273.63L34.11 273.63" stroke="rgba(75, 207, 103, 1)" stroke-width="1.5"></path><path d="M34.11 273.63L72.58 282.12" stroke="rgba(75, 207, 103, 1)" stroke-width="1.5"></path><path d="M34.11 273.63L12.7 313.43" stroke="rgba(75, 207, 103, 1)" stroke-width="1.5"></path><path d="M34.11 273.63L67 320.5" stroke="rgba(75, 207, 103, 1)" stroke-width="1.5"></path><path d="M12.7 313.43L12.7 313.43" stroke="rgba(75, 207, 103, 1)" stroke-width="1.5"></path><path d="M25.44 378.67L25.44 378.67" stroke="rgba(75, 207, 103, 1)" stroke-width="1.5"></path><path d="M25.44 378.67L21.44 413.55" stroke="rgba(75, 207, 103, 1)" stroke-width="1.5"></path><path d="M25.44 378.67L76.69 377.61" stroke="rgba(75, 207, 103, 1)" stroke-width="1.5"></path><path d="M25.44 378.67L12.7 313.43" stroke="rgba(75, 207, 103, 1)" stroke-width="1.5"></path><path d="M25.44 378.67L67 320.5" stroke="rgba(75, 207, 103, 1)" stroke-width="1.5"></path><path d="M21.44 413.55L21.44 413.55" stroke="rgba(75, 207, 103, 1)" stroke-width="1.5"></path><path d="M21.44 413.55L76.69 377.61" stroke="rgba(75, 207, 103, 1)" stroke-width="1.5"></path><path d="M21.44 413.55L86.34 430.83" stroke="rgba(75, 207, 103, 1)" stroke-width="1.5"></path><path d="M72.58 282.12L72.58 282.12" stroke="rgba(75, 207, 103, 1)" stroke-width="1.5"></path><path d="M72.58 282.12L67 320.5" stroke="rgba(75, 207, 103, 1)" stroke-width="1.5"></path><path d="M72.58 282.12L124.98 271.86" stroke="rgba(75, 207, 103, 1)" stroke-width="1.5"></path><path d="M72.58 282.12L12.7 313.43" stroke="rgba(75, 207, 103, 1)" stroke-width="1.5"></path><path d="M67 320.5L67 320.5" stroke="rgba(75, 207, 103, 1)" stroke-width="1.5"></path><path d="M76.69 377.61L76.69 377.61" stroke="rgba(75, 207, 103, 1)" stroke-width="1.5"></path><path d="M76.69 377.61L126.05 367.25" stroke="rgba(75, 207, 103, 1)" stroke-width="1.5"></path><path d="M76.69 377.61L86.34 430.83" stroke="rgba(75, 207, 103, 1)" stroke-width="1.5"></path><path d="M76.69 377.61L67 320.5" stroke="rgba(75, 207, 103, 1)" stroke-width="1.5"></path><path d="M76.69 377.61L125.33 336.37" stroke="rgba(75, 207, 103, 1)" stroke-width="1.5"></path><path d="M86.34 430.83L86.34 430.83" stroke="rgba(75, 207, 103, 1)" stroke-width="1.5"></path><path d="M86.34 430.83L128.07 418.89" stroke="rgba(75, 207, 103, 1)" stroke-width="1.5"></path><path d="M135.52 219.91L135.52 219.91" stroke="rgba(75, 207, 103, 1)" stroke-width="1.5"></path><path d="M135.52 219.91L183.2 220.08" stroke="rgba(75, 207, 103, 1)" stroke-width="1.5"></path><path d="M135.52 219.91L124.98 271.86" stroke="rgba(75, 207, 103, 1)" stroke-width="1.5"></path><path d="M135.52 219.91L186.49 274.24" stroke="rgba(75, 207, 103, 1)" stroke-width="1.5"></path><path d="M135.52 219.91L221.35 234.43" stroke="rgba(75, 207, 103, 1)" stroke-width="1.5"></path><path d="M135.52 219.91L72.58 282.12" stroke="rgba(75, 207, 103, 1)" stroke-width="1.5"></path><path d="M124.98 271.86L124.98 271.86" stroke="rgba(75, 207, 103, 1)" stroke-width="1.5"></path><path d="M124.98 271.86L186.49 274.24" stroke="rgba(75, 207, 103, 1)" stroke-width="1.5"></path><path d="M125.33 336.37L125.33 336.37" stroke="rgba(75, 207, 103, 1)" stroke-width="1.5"></path><path d="M125.33 336.37L126.05 367.25" stroke="rgba(75, 207, 103, 1)" stroke-width="1.5"></path><path d="M125.33 336.37L174.34 318.46" stroke="rgba(75, 207, 103, 1)" stroke-width="1.5"></path><path d="M125.33 336.37L67 320.5" stroke="rgba(75, 207, 103, 1)" stroke-width="1.5"></path><path d="M125.33 336.37L124.98 271.86" stroke="rgba(75, 207, 103, 1)" stroke-width="1.5"></path><path d="M126.05 367.25L126.05 367.25" stroke="rgba(75, 207, 103, 1)" stroke-width="1.5"></path><path d="M128.07 418.89L128.07 418.89" stroke="rgba(75, 207, 103, 1)" stroke-width="1.5"></path><path d="M128.07 418.89L126.05 367.25" stroke="rgba(75, 207, 103, 1)" stroke-width="1.5"></path><path d="M128.07 418.89L76.69 377.61" stroke="rgba(75, 207, 103, 1)" stroke-width="1.5"></path><path d="M128.07 418.89L125.33 336.37" stroke="rgba(75, 207, 103, 1)" stroke-width="1.5"></path><path d="M128.07 418.89L225.87 422.71" stroke="rgba(75, 207, 103, 1)" stroke-width="1.5"></path><path d="M183.2 220.08L183.2 220.08" stroke="rgba(75, 207, 103, 1)" stroke-width="1.5"></path><path d="M183.2 220.08L221.35 234.43" stroke="rgba(75, 207, 103, 1)" stroke-width="1.5"></path><path d="M183.2 220.08L186.49 274.24" stroke="rgba(75, 207, 103, 1)" stroke-width="1.5"></path><path d="M183.2 220.08L220.95 271.55" stroke="rgba(75, 207, 103, 1)" stroke-width="1.5"></path><path d="M183.2 220.08L219.67 164.78" stroke="rgba(75, 207, 103, 1)" stroke-width="1.5"></path><path d="M186.49 274.24L186.49 274.24" stroke="rgba(75, 207, 103, 1)" stroke-width="1.5"></path><path d="M186.49 274.24L220.95 271.55" stroke="rgba(75, 207, 103, 1)" stroke-width="1.5"></path><path d="M186.49 274.24L174.34 318.46" stroke="rgba(75, 207, 103, 1)" stroke-width="1.5"></path><path d="M186.49 274.24L221.35 234.43" stroke="rgba(75, 207, 103, 1)" stroke-width="1.5"></path><path d="M174.34 318.46L174.34 318.46" stroke="rgba(75, 207, 103, 1)" stroke-width="1.5"></path><path d="M174.34 318.46L214.47 320.08" stroke="rgba(75, 207, 103, 1)" stroke-width="1.5"></path><path d="M221.27 129.7L221.27 129.7" stroke="rgba(75, 207, 103, 1)" stroke-width="1.5"></path><path d="M221.27 129.7L219.67 164.78" stroke="rgba(75, 207, 103, 1)" stroke-width="1.5"></path><path d="M221.27 129.7L277.68 132.32" stroke="rgba(75, 207, 103, 1)" stroke-width="1.5"></path><path d="M221.27 129.7L266.43 84.43" stroke="rgba(75, 207, 103, 1)" stroke-width="1.5"></path><path d="M221.27 129.7L183.2 220.08" stroke="rgba(75, 207, 103, 1)" stroke-width="1.5"></path><path d="M221.27 129.7L221.35 234.43" stroke="rgba(75, 207, 103, 1)" stroke-width="1.5"></path><path d="M221.27 129.7L281.33 220.31" stroke="rgba(75, 207, 103, 1)" stroke-width="1.5"></path><path d="M219.67 164.78L219.67 164.78" stroke="rgba(75, 207, 103, 1)" stroke-width="1.5"></path><path d="M219.67 164.78L277.68 132.32" stroke="rgba(75, 207, 103, 1)" stroke-width="1.5"></path><path d="M219.67 164.78L221.35 234.43" stroke="rgba(75, 207, 103, 1)" stroke-width="1.5"></path><path d="M219.67 164.78L281.33 220.31" stroke="rgba(75, 207, 103, 1)" stroke-width="1.5"></path><path d="M221.35 234.43L221.35 234.43" stroke="rgba(75, 207, 103, 1)" stroke-width="1.5"></path><path d="M221.35 234.43L220.95 271.55" stroke="rgba(75, 207, 103, 1)" stroke-width="1.5"></path><path d="M220.95 271.55L220.95 271.55" stroke="rgba(75, 207, 103, 1)" stroke-width="1.5"></path><path d="M220.95 271.55L214.47 320.08" stroke="rgba(75, 207, 103, 1)" stroke-width="1.5"></path><path d="M220.95 271.55L281.51 263.16" stroke="rgba(75, 207, 103, 1)" stroke-width="1.5"></path><path d="M214.47 320.08L214.47 320.08" stroke="rgba(75, 207, 103, 1)" stroke-width="1.5"></path><path d="M231.14 370.46L231.14 370.46" stroke="rgba(75, 207, 103, 1)" stroke-width="1.5"></path><path d="M231.14 370.46L267.86 365.12" stroke="rgba(75, 207, 103, 1)" stroke-width="1.5"></path><path d="M231.14 370.46L225.87 422.71" stroke="rgba(75, 207, 103, 1)" stroke-width="1.5"></path><path d="M231.14 370.46L214.47 320.08" stroke="rgba(75, 207, 103, 1)" stroke-width="1.5"></path><path d="M225.87 422.71L225.87 422.71" stroke="rgba(75, 207, 103, 1)" stroke-width="1.5"></path><path d="M225.87 422.71L286.61 428.29" stroke="rgba(75, 207, 103, 1)" stroke-width="1.5"></path><path d="M225.87 422.71L267.86 365.12" stroke="rgba(75, 207, 103, 1)" stroke-width="1.5"></path><path d="M268.71 -35.36L268.71 -35.36" stroke="rgba(75, 207, 103, 1)" stroke-width="1.5"></path><path d="M268.71 -35.36L280.35 13.71" stroke="rgba(75, 207, 103, 1)" stroke-width="1.5"></path><path d="M268.71 -35.36L337.06 35.59" stroke="rgba(75, 207, 103, 1)" stroke-width="1.5"></path><path d="M268.71 -35.36L377.33 -21.81" stroke="rgba(75, 207, 103, 1)" stroke-width="1.5"></path><path d="M268.71 -35.36L317.39 64.41" stroke="rgba(75, 207, 103, 1)" stroke-width="1.5"></path><path d="M268.71 -35.36L266.43 84.43" stroke="rgba(75, 207, 103, 1)" stroke-width="1.5"></path><path d="M268.71 -35.36L384.52 21.52" stroke="rgba(75, 207, 103, 1)" stroke-width="1.5"></path><path d="M280.35 13.71L280.35 13.71" stroke="rgba(75, 207, 103, 1)" stroke-width="1.5"></path><path d="M280.35 13.71L337.06 35.59" stroke="rgba(75, 207, 103, 1)" stroke-width="1.5"></path><path d="M280.35 13.71L317.39 64.41" stroke="rgba(75, 207, 103, 1)" stroke-width="1.5"></path><path d="M266.43 84.43L266.43 84.43" stroke="rgba(75, 207, 103, 1)" stroke-width="1.5"></path><path d="M266.43 84.43L277.68 132.32" stroke="rgba(75, 207, 103, 1)" stroke-width="1.5"></path><path d="M266.43 84.43L317.39 64.41" stroke="rgba(75, 207, 103, 1)" stroke-width="1.5"></path><path d="M277.68 132.32L277.68 132.32" stroke="rgba(75, 207, 103, 1)" stroke-width="1.5"></path><path d="M277.68 132.32L331.3 117.41" stroke="rgba(75, 207, 103, 1)" stroke-width="1.5"></path><path d="M277.68 132.32L317.39 64.41" stroke="rgba(75, 207, 103, 1)" stroke-width="1.5"></path><path d="M281.33 220.31L281.33 220.31" stroke="rgba(75, 207, 103, 1)" stroke-width="1.5"></path><path d="M281.33 220.31L322.62 220.95" stroke="rgba(75, 207, 103, 1)" stroke-width="1.5"></path><path d="M281.33 220.31L281.51 263.16" stroke="rgba(75, 207, 103, 1)" stroke-width="1.5"></path><path d="M281.51 263.16L281.51 263.16" stroke="rgba(75, 207, 103, 1)" stroke-width="1.5"></path><path d="M281.51 263.16L324.24 263.44" stroke="rgba(75, 207, 103, 1)" stroke-width="1.5"></path><path d="M281.51 263.16L322.62 220.95" stroke="rgba(75, 207, 103, 1)" stroke-width="1.5"></path><path d="M281.51 263.16L263.54 325.96" stroke="rgba(75, 207, 103, 1)" stroke-width="1.5"></path><path d="M263.54 325.96L263.54 325.96" stroke="rgba(75, 207, 103, 1)" stroke-width="1.5"></path><path d="M263.54 325.96L267.86 365.12" stroke="rgba(75, 207, 103, 1)" stroke-width="1.5"></path><path d="M263.54 325.96L214.47 320.08" stroke="rgba(75, 207, 103, 1)" stroke-width="1.5"></path><path d="M263.54 325.96L231.14 370.46" stroke="rgba(75, 207, 103, 1)" stroke-width="1.5"></path><path d="M263.54 325.96L220.95 271.55" stroke="rgba(75, 207, 103, 1)" stroke-width="1.5"></path><path d="M263.54 325.96L324.24 263.44" stroke="rgba(75, 207, 103, 1)" stroke-width="1.5"></path><path d="M267.86 365.12L267.86 365.12" stroke="rgba(75, 207, 103, 1)" stroke-width="1.5"></path><path d="M267.86 365.12L286.61 428.29" stroke="rgba(75, 207, 103, 1)" stroke-width="1.5"></path><path d="M267.86 365.12L214.47 320.08" stroke="rgba(75, 207, 103, 1)" stroke-width="1.5"></path><path d="M286.61 428.29L286.61 428.29" stroke="rgba(75, 207, 103, 1)" stroke-width="1.5"></path><path d="M286.61 428.29L322.06 436.68" stroke="rgba(75, 207, 103, 1)" stroke-width="1.5"></path><path d="M286.61 428.29L231.14 370.46" stroke="rgba(75, 207, 103, 1)" stroke-width="1.5"></path><path d="M337.06 35.59L337.06 35.59" stroke="rgba(75, 207, 103, 1)" stroke-width="1.5"></path><path d="M337.06 35.59L317.39 64.41" stroke="rgba(75, 207, 103, 1)" stroke-width="1.5"></path><path d="M337.06 35.59L384.52 21.52" stroke="rgba(75, 207, 103, 1)" stroke-width="1.5"></path><path d="M337.06 35.59L364.22 84.34" stroke="rgba(75, 207, 103, 1)" stroke-width="1.5"></path><path d="M317.39 64.41L317.39 64.41" stroke="rgba(75, 207, 103, 1)" stroke-width="1.5"></path><path d="M317.39 64.41L364.22 84.34" stroke="rgba(75, 207, 103, 1)" stroke-width="1.5"></path><path d="M317.39 64.41L331.3 117.41" stroke="rgba(75, 207, 103, 1)" stroke-width="1.5"></path><path d="M317.39 64.41L371.56 116.71" stroke="rgba(75, 207, 103, 1)" stroke-width="1.5"></path><path d="M331.3 117.41L331.3 117.41" stroke="rgba(75, 207, 103, 1)" stroke-width="1.5"></path><path d="M331.3 117.41L371.56 116.71" stroke="rgba(75, 207, 103, 1)" stroke-width="1.5"></path><path d="M331.3 117.41L364.22 84.34" stroke="rgba(75, 207, 103, 1)" stroke-width="1.5"></path><path d="M331.3 117.41L364.35 180.46" stroke="rgba(75, 207, 103, 1)" stroke-width="1.5"></path><path d="M322.62 220.95L322.62 220.95" stroke="rgba(75, 207, 103, 1)" stroke-width="1.5"></path><path d="M322.62 220.95L324.24 263.44" stroke="rgba(75, 207, 103, 1)" stroke-width="1.5"></path><path d="M322.62 220.95L365.46 235.3" stroke="rgba(75, 207, 103, 1)" stroke-width="1.5"></path><path d="M322.62 220.95L364.35 180.46" stroke="rgba(75, 207, 103, 1)" stroke-width="1.5"></path><path d="M322.62 220.95L383.42 268.17" stroke="rgba(75, 207, 103, 1)" stroke-width="1.5"></path><path d="M324.24 263.44L324.24 263.44" stroke="rgba(75, 207, 103, 1)" stroke-width="1.5"></path><path d="M324.24 263.44L365.46 235.3" stroke="rgba(75, 207, 103, 1)" stroke-width="1.5"></path><path d="M324.24 263.44L383.42 268.17" stroke="rgba(75, 207, 103, 1)" stroke-width="1.5"></path><path d="M324.24 263.44L281.33 220.31" stroke="rgba(75, 207, 103, 1)" stroke-width="1.5"></path><path d="M324.24 263.44L372.58 331.3" stroke="rgba(75, 207, 103, 1)" stroke-width="1.5"></path><path d="M322.06 436.68L322.06 436.68" stroke="rgba(75, 207, 103, 1)" stroke-width="1.5"></path><path d="M322.06 436.68L386.46 433" stroke="rgba(75, 207, 103, 1)" stroke-width="1.5"></path><path d="M322.06 436.68L381.31 377.07" stroke="rgba(75, 207, 103, 1)" stroke-width="1.5"></path><path d="M322.06 436.68L267.86 365.12" stroke="rgba(75, 207, 103, 1)" stroke-width="1.5"></path><path d="M322.06 436.68L225.87 422.71" stroke="rgba(75, 207, 103, 1)" stroke-width="1.5"></path><path d="M322.06 436.68L412.76 377.92" stroke="rgba(75, 207, 103, 1)" stroke-width="1.5"></path><path d="M377.33 -21.81L377.33 -21.81" stroke="rgba(75, 207, 103, 1)" stroke-width="1.5"></path><path d="M377.33 -21.81L384.52 21.52" stroke="rgba(75, 207, 103, 1)" stroke-width="1.5"></path><path d="M377.33 -21.81L432.69 -29.47" stroke="rgba(75, 207, 103, 1)" stroke-width="1.5"></path><path d="M377.33 -21.81L337.06 35.59" stroke="rgba(75, 207, 103, 1)" stroke-width="1.5"></path><path d="M377.33 -21.81L280.35 13.71" stroke="rgba(75, 207, 103, 1)" stroke-width="1.5"></path><path d="M377.33 -21.81L317.39 64.41" stroke="rgba(75, 207, 103, 1)" stroke-width="1.5"></path><path d="M377.33 -21.81L437.02 65.06" stroke="rgba(75, 207, 103, 1)" stroke-width="1.5"></path><path d="M384.52 21.52L384.52 21.52" stroke="rgba(75, 207, 103, 1)" stroke-width="1.5"></path><path d="M384.52 21.52L364.22 84.34" stroke="rgba(75, 207, 103, 1)" stroke-width="1.5"></path><path d="M364.22 84.34L364.22 84.34" stroke="rgba(75, 207, 103, 1)" stroke-width="1.5"></path><path d="M364.22 84.34L371.56 116.71" stroke="rgba(75, 207, 103, 1)" stroke-width="1.5"></path><path d="M371.56 116.71L371.56 116.71" stroke="rgba(75, 207, 103, 1)" stroke-width="1.5"></path><path d="M371.56 116.71L364.35 180.46" stroke="rgba(75, 207, 103, 1)" stroke-width="1.5"></path><path d="M364.35 180.46L364.35 180.46" stroke="rgba(75, 207, 103, 1)" stroke-width="1.5"></path><path d="M364.35 180.46L365.46 235.3" stroke="rgba(75, 207, 103, 1)" stroke-width="1.5"></path><path d="M364.35 180.46L418.78 216.42" stroke="rgba(75, 207, 103, 1)" stroke-width="1.5"></path><path d="M365.46 235.3L365.46 235.3" stroke="rgba(75, 207, 103, 1)" stroke-width="1.5"></path><path d="M365.46 235.3L383.42 268.17" stroke="rgba(75, 207, 103, 1)" stroke-width="1.5"></path><path d="M383.42 268.17L383.42 268.17" stroke="rgba(75, 207, 103, 1)" stroke-width="1.5"></path><path d="M383.42 268.17L415.76 268.51" stroke="rgba(75, 207, 103, 1)" stroke-width="1.5"></path><path d="M372.58 331.3L372.58 331.3" stroke="rgba(75, 207, 103, 1)" stroke-width="1.5"></path><path d="M372.58 331.3L412.54 331.15" stroke="rgba(75, 207, 103, 1)" stroke-width="1.5"></path><path d="M381.31 377.07L381.31 377.07" stroke="rgba(75, 207, 103, 1)" stroke-width="1.5"></path><path d="M381.31 377.07L412.76 377.92" stroke="rgba(75, 207, 103, 1)" stroke-width="1.5"></path><path d="M381.31 377.07L372.58 331.3" stroke="rgba(75, 207, 103, 1)" stroke-width="1.5"></path><path d="M386.46 433L386.46 433" stroke="rgba(75, 207, 103, 1)" stroke-width="1.5"></path><path d="M386.46 433L436.54 433.61" stroke="rgba(75, 207, 103, 1)" stroke-width="1.5"></path><path d="M386.46 433L381.31 377.07" stroke="rgba(75, 207, 103, 1)" stroke-width="1.5"></path><path d="M386.46 433L412.76 377.92" stroke="rgba(75, 207, 103, 1)" stroke-width="1.5"></path><path d="M386.46 433L286.61 428.29" stroke="rgba(75, 207, 103, 1)" stroke-width="1.5"></path><path d="M386.46 433L372.58 331.3" stroke="rgba(75, 207, 103, 1)" stroke-width="1.5"></path><path d="M432.69 -29.47L432.69 -29.47" stroke="rgba(75, 207, 103, 1)" stroke-width="1.5"></path><path d="M432.69 -29.47L384.52 21.52" stroke="rgba(75, 207, 103, 1)" stroke-width="1.5"></path><path d="M437.02 65.06L437.02 65.06" stroke="rgba(75, 207, 103, 1)" stroke-width="1.5"></path><path d="M437.02 65.06L384.52 21.52" stroke="rgba(75, 207, 103, 1)" stroke-width="1.5"></path><path d="M437.02 65.06L364.22 84.34" stroke="rgba(75, 207, 103, 1)" stroke-width="1.5"></path><path d="M437.02 65.06L371.56 116.71" stroke="rgba(75, 207, 103, 1)" stroke-width="1.5"></path><path d="M437.02 65.06L432.69 -29.47" stroke="rgba(75, 207, 103, 1)" stroke-width="1.5"></path><path d="M437.02 65.06L337.06 35.59" stroke="rgba(75, 207, 103, 1)" stroke-width="1.5"></path><path d="M418.78 216.42L418.78 216.42" stroke="rgba(75, 207, 103, 1)" stroke-width="1.5"></path><path d="M418.78 216.42L415.76 268.51" stroke="rgba(75, 207, 103, 1)" stroke-width="1.5"></path><path d="M418.78 216.42L365.46 235.3" stroke="rgba(75, 207, 103, 1)" stroke-width="1.5"></path><path d="M418.78 216.42L383.42 268.17" stroke="rgba(75, 207, 103, 1)" stroke-width="1.5"></path><path d="M418.78 216.42L322.62 220.95" stroke="rgba(75, 207, 103, 1)" stroke-width="1.5"></path><path d="M415.76 268.51L415.76 268.51" stroke="rgba(75, 207, 103, 1)" stroke-width="1.5"></path><path d="M415.76 268.51L365.46 235.3" stroke="rgba(75, 207, 103, 1)" stroke-width="1.5"></path><path d="M412.54 331.15L412.54 331.15" stroke="rgba(75, 207, 103, 1)" stroke-width="1.5"></path><path d="M412.54 331.15L412.76 377.92" stroke="rgba(75, 207, 103, 1)" stroke-width="1.5"></path><path d="M412.54 331.15L381.31 377.07" stroke="rgba(75, 207, 103, 1)" stroke-width="1.5"></path><path d="M412.76 377.92L412.76 377.92" stroke="rgba(75, 207, 103, 1)" stroke-width="1.5"></path><path d="M436.54 433.61L436.54 433.61" stroke="rgba(75, 207, 103, 1)" stroke-width="1.5"></path><path d="M436.54 433.61L412.76 377.92" stroke="rgba(75, 207, 103, 1)" stroke-width="1.5"></path><circle r="5" cx="-20.29" cy="278.38" fill="rgba(75, 207, 103, 1)"></circle><circle r="5" cx="-22.53" cy="318.24" fill="rgba(75, 207, 103, 1)"></circle><circle r="5" cx="-25.87" cy="382.11" fill="rgba(75, 207, 103, 1)"></circle><circle r="5" cx="34.11" cy="273.63" fill="rgba(75, 207, 103, 1)"></circle><circle r="5" cx="12.7" cy="313.43" fill="rgba(75, 207, 103, 1)"></circle><circle r="5" cx="25.44" cy="378.67" fill="rgba(75, 207, 103, 1)"></circle><circle r="5" cx="21.44" cy="413.55" fill="rgba(75, 207, 103, 1)"></circle><circle r="5" cx="72.58" cy="282.12" fill="rgba(75, 207, 103, 1)"></circle><circle r="5" cx="67" cy="320.5" fill="rgba(75, 207, 103, 1)"></circle><circle r="5" cx="76.69" cy="377.61" fill="rgba(75, 207, 103, 1)"></circle><circle r="5" cx="86.34" cy="430.83" fill="rgba(75, 207, 103, 1)"></circle><circle r="5" cx="135.52" cy="219.91" fill="rgba(75, 207, 103, 1)"></circle><circle r="5" cx="124.98" cy="271.86" fill="rgba(75, 207, 103, 1)"></circle><circle r="5" cx="125.33" cy="336.37" fill="rgba(75, 207, 103, 1)"></circle><circle r="5" cx="126.05" cy="367.25" fill="rgba(75, 207, 103, 1)"></circle><circle r="5" cx="128.07" cy="418.89" fill="rgba(75, 207, 103, 1)"></circle><circle r="5" cx="183.2" cy="220.08" fill="rgba(75, 207, 103, 1)"></circle><circle r="5" cx="186.49" cy="274.24" fill="rgba(75, 207, 103, 1)"></circle><circle r="5" cx="174.34" cy="318.46" fill="rgba(75, 207, 103, 1)"></circle><circle r="5" cx="221.27" cy="129.7" fill="rgba(75, 207, 103, 1)"></circle><circle r="5" cx="219.67" cy="164.78" fill="rgba(75, 207, 103, 1)"></circle><circle r="5" cx="221.35" cy="234.43" fill="rgba(75, 207, 103, 1)"></circle><circle r="5" cx="220.95" cy="271.55" fill="rgba(75, 207, 103, 1)"></circle><circle r="5" cx="214.47" cy="320.08" fill="rgba(75, 207, 103, 1)"></circle><circle r="5" cx="231.14" cy="370.46" fill="rgba(75, 207, 103, 1)"></circle><circle r="5" cx="225.87" cy="422.71" fill="rgba(75, 207, 103, 1)"></circle><circle r="5" cx="268.71" cy="-35.36" fill="rgba(75, 207, 103, 1)"></circle><circle r="5" cx="280.35" cy="13.71" fill="rgba(75, 207, 103, 1)"></circle><circle r="5" cx="266.43" cy="84.43" fill="rgba(75, 207, 103, 1)"></circle><circle r="5" cx="277.68" cy="132.32" fill="rgba(75, 207, 103, 1)"></circle><circle r="5" cx="281.33" cy="220.31" fill="rgba(75, 207, 103, 1)"></circle><circle r="5" cx="281.51" cy="263.16" fill="rgba(75, 207, 103, 1)"></circle><circle r="5" cx="263.54" cy="325.96" fill="rgba(75, 207, 103, 1)"></circle><circle r="5" cx="267.86" cy="365.12" fill="rgba(75, 207, 103, 1)"></circle><circle r="5" cx="286.61" cy="428.29" fill="rgba(75, 207, 103, 1)"></circle><circle r="5" cx="337.06" cy="35.59" fill="rgba(75, 207, 103, 1)"></circle><circle r="5" cx="317.39" cy="64.41" fill="rgba(75, 207, 103, 1)"></circle><circle r="5" cx="331.3" cy="117.41" fill="rgba(75, 207, 103, 1)"></circle><circle r="5" cx="322.62" cy="220.95" fill="rgba(75, 207, 103, 1)"></circle><circle r="5" cx="324.24" cy="263.44" fill="rgba(75, 207, 103, 1)"></circle><circle r="5" cx="322.06" cy="436.68" fill="rgba(75, 207, 103, 1)"></circle><circle r="5" cx="377.33" cy="-21.81" fill="rgba(75, 207, 103, 1)"></circle><circle r="5" cx="384.52" cy="21.52" fill="rgba(75, 207, 103, 1)"></circle><circle r="5" cx="364.22" cy="84.34" fill="rgba(75, 207, 103, 1)"></circle><circle r="5" cx="371.56" cy="116.71" fill="rgba(75, 207, 103, 1)"></circle><circle r="5" cx="364.35" cy="180.46" fill="rgba(75, 207, 103, 1)"></circle><circle r="5" cx="365.46" cy="235.3" fill="rgba(75, 207, 103, 1)"></circle><circle r="5" cx="383.42" cy="268.17" fill="rgba(75, 207, 103, 1)"></circle><circle r="5" cx="372.58" cy="331.3" fill="rgba(75, 207, 103, 1)"></circle><circle r="5" cx="381.31" cy="377.07" fill="rgba(75, 207, 103, 1)"></circle><circle r="5" cx="386.46" cy="433" fill="rgba(75, 207, 103, 1)"></circle><circle r="5" cx="432.69" cy="-29.47" fill="rgba(75, 207, 103, 1)"></circle><circle r="5" cx="437.02" cy="65.06" fill="rgba(75, 207, 103, 1)"></circle><circle r="5" cx="418.78" cy="216.42" fill="rgba(75, 207, 103, 1)"></circle><circle r="5" cx="415.76" cy="268.51" fill="rgba(75, 207, 103, 1)"></circle><circle r="5" cx="412.54" cy="331.15" fill="rgba(75, 207, 103, 1)"></circle><circle r="5" cx="412.76" cy="377.92" fill="rgba(75, 207, 103, 1)"></circle><circle r="5" cx="436.54" cy="433.61" fill="rgba(75, 207, 103, 1)"></circle><path d="M-23.19 331.66L-23.19 331.66" stroke="hsl(132.3, 80.4%, 72.6%)" stroke-width="1.5"></path><path d="M-23.19 331.66L-16.78 370.68" stroke="hsl(132.3, 80.4%, 72.6%)" stroke-width="1.5"></path><path d="M-23.19 331.66L25.18 329.92" stroke="hsl(132.3, 80.4%, 72.6%)" stroke-width="1.5"></path><path d="M-23.19 331.66L32.58 370.38" stroke="hsl(132.3, 80.4%, 72.6%)" stroke-width="1.5"></path><path d="M-23.19 331.66L-29.33 420.06" stroke="hsl(132.3, 80.4%, 72.6%)" stroke-width="1.5"></path><path d="M-23.19 331.66L28.91 413.18" stroke="hsl(132.3, 80.4%, 72.6%)" stroke-width="1.5"></path><path d="M-23.19 331.66L77.26 316.64" stroke="hsl(132.3, 80.4%, 72.6%)" stroke-width="1.5"></path><path d="M32.58 370.38L32.58 370.38" stroke="hsl(132.3, 80.4%, 72.6%)" stroke-width="1.5"></path><path d="M32.58 370.38L73.05 372.35" stroke="hsl(132.3, 80.4%, 72.6%)" stroke-width="1.5"></path><path d="M32.58 370.38L25.18 329.92" stroke="hsl(132.3, 80.4%, 72.6%)" stroke-width="1.5"></path><path d="M28.91 413.18L28.91 413.18" stroke="hsl(132.3, 80.4%, 72.6%)" stroke-width="1.5"></path><path d="M28.91 413.18L32.58 370.38" stroke="hsl(132.3, 80.4%, 72.6%)" stroke-width="1.5"></path><path d="M28.91 413.18L69.38 428.06" stroke="hsl(132.3, 80.4%, 72.6%)" stroke-width="1.5"></path><path d="M262.5 277.68L262.5 277.68" stroke="hsl(132.3, 80.4%, 72.6%)" stroke-width="1.5"></path><path d="M262.5 277.68L281.88 312.53" stroke="hsl(132.3, 80.4%, 72.6%)" stroke-width="1.5"></path><path d="M262.5 277.68L270.5 236.48" stroke="hsl(132.3, 80.4%, 72.6%)" stroke-width="1.5"></path><path d="M262.5 277.68L216.19 271.68" stroke="hsl(132.3, 80.4%, 72.6%)" stroke-width="1.5"></path><path d="M262.5 277.68L233.47 333.68" stroke="hsl(132.3, 80.4%, 72.6%)" stroke-width="1.5"></path><path d="M262.5 277.68L330.09 275.87" stroke="hsl(132.3, 80.4%, 72.6%)" stroke-width="1.5"></path><path d="M262.5 277.68L327.53 316.22" stroke="hsl(132.3, 80.4%, 72.6%)" stroke-width="1.5"></path><path d="M327.64 74.41L327.64 74.41" stroke="hsl(132.3, 80.4%, 72.6%)" stroke-width="1.5"></path><path d="M327.64 74.41L381.5 68.52" stroke="hsl(132.3, 80.4%, 72.6%)" stroke-width="1.5"></path><path d="M327.64 74.41L323.24 129.09" stroke="hsl(132.3, 80.4%, 72.6%)" stroke-width="1.5"></path><path d="M319.99 173.79L319.99 173.79" stroke="hsl(132.3, 80.4%, 72.6%)" stroke-width="1.5"></path><path d="M319.99 173.79L279.64 185.91" stroke="hsl(132.3, 80.4%, 72.6%)" stroke-width="1.5"></path><path d="M319.99 173.79L321.5 217.27" stroke="hsl(132.3, 80.4%, 72.6%)" stroke-width="1.5"></path><path d="M330.09 275.87L330.09 275.87" stroke="hsl(132.3, 80.4%, 72.6%)" stroke-width="1.5"></path><path d="M330.09 275.87L327.53 316.22" stroke="hsl(132.3, 80.4%, 72.6%)" stroke-width="1.5"></path><path d="M330.09 275.87L378.01 268.4" stroke="hsl(132.3, 80.4%, 72.6%)" stroke-width="1.5"></path><path d="M330.09 275.87L321.5 217.27" stroke="hsl(132.3, 80.4%, 72.6%)" stroke-width="1.5"></path><path d="M330.09 275.87L281.88 312.53" stroke="hsl(132.3, 80.4%, 72.6%)" stroke-width="1.5"></path><path d="M330.09 275.87L370.64 224.19" stroke="hsl(132.3, 80.4%, 72.6%)" stroke-width="1.5"></path><path d="M313.55 432.07L313.55 432.07" stroke="hsl(132.3, 80.4%, 72.6%)" stroke-width="1.5"></path><path d="M313.55 432.07L271.82 416.32" stroke="hsl(132.3, 80.4%, 72.6%)" stroke-width="1.5"></path><path d="M313.55 432.07L331.92 385.8" stroke="hsl(132.3, 80.4%, 72.6%)" stroke-width="1.5"></path><path d="M313.55 432.07L382.33 431.48" stroke="hsl(132.3, 80.4%, 72.6%)" stroke-width="1.5"></path><path d="M431.63 -28.72L431.63 -28.72" stroke="hsl(132.3, 80.4%, 72.6%)" stroke-width="1.5"></path><path d="M431.63 -28.72L385.56 -17.78" stroke="hsl(132.3, 80.4%, 72.6%)" stroke-width="1.5"></path><path d="M431.63 -28.72L414.59 33.72" stroke="hsl(132.3, 80.4%, 72.6%)" stroke-width="1.5"></path><path d="M431.63 -28.72L377.99 16.88" stroke="hsl(132.3, 80.4%, 72.6%)" stroke-width="1.5"></path><path d="M431.63 -28.72L429.97 73.03" stroke="hsl(132.3, 80.4%, 72.6%)" stroke-width="1.5"></path><path d="M429.97 73.03L429.97 73.03" stroke="hsl(132.3, 80.4%, 72.6%)" stroke-width="1.5"></path><path d="M429.97 73.03L414.59 33.72" stroke="hsl(132.3, 80.4%, 72.6%)" stroke-width="1.5"></path><path d="M429.97 73.03L381.5 68.52" stroke="hsl(132.3, 80.4%, 72.6%)" stroke-width="1.5"></path><path d="M429.97 73.03L377.99 16.88" stroke="hsl(132.3, 80.4%, 72.6%)" stroke-width="1.5"></path><path d="M429.97 73.03L365.26 120.61" stroke="hsl(132.3, 80.4%, 72.6%)" stroke-width="1.5"></path><path d="M429.97 73.03L385.56 -17.78" stroke="hsl(132.3, 80.4%, 72.6%)" stroke-width="1.5"></path><path d="M437.08 183.05L437.08 183.05" stroke="hsl(132.3, 80.4%, 72.6%)" stroke-width="1.5"></path><path d="M437.08 183.05L421.85 233.5" stroke="hsl(132.3, 80.4%, 72.6%)" stroke-width="1.5"></path><path d="M437.08 183.05L383.14 182.06" stroke="hsl(132.3, 80.4%, 72.6%)" stroke-width="1.5"></path><path d="M437.08 183.05L370.64 224.19" stroke="hsl(132.3, 80.4%, 72.6%)" stroke-width="1.5"></path><path d="M437.08 183.05L421.94 269.03" stroke="hsl(132.3, 80.4%, 72.6%)" stroke-width="1.5"></path><path d="M-16.78 370.68L-16.78 370.68" stroke="hsl(132.3, 80.4%, 72.6%)" stroke-width="1.5"></path><path d="M-16.78 370.68L32.58 370.38" stroke="hsl(132.3, 80.4%, 72.6%)" stroke-width="1.5"></path><path d="M-29.33 420.06L-29.33 420.06" stroke="hsl(132.3, 80.4%, 72.6%)" stroke-width="1.5"></path><path d="M-29.33 420.06L-16.78 370.68" stroke="hsl(132.3, 80.4%, 72.6%)" stroke-width="1.5"></path><path d="M-29.33 420.06L28.91 413.18" stroke="hsl(132.3, 80.4%, 72.6%)" stroke-width="1.5"></path><path d="M-29.33 420.06L32.58 370.38" stroke="hsl(132.3, 80.4%, 72.6%)" stroke-width="1.5"></path><path d="M25.18 329.92L25.18 329.92" stroke="hsl(132.3, 80.4%, 72.6%)" stroke-width="1.5"></path><path d="M25.18 329.92L77.26 316.64" stroke="hsl(132.3, 80.4%, 72.6%)" stroke-width="1.5"></path><path d="M25.18 329.92L-16.78 370.68" stroke="hsl(132.3, 80.4%, 72.6%)" stroke-width="1.5"></path><path d="M77.26 316.64L77.26 316.64" stroke="hsl(132.3, 80.4%, 72.6%)" stroke-width="1.5"></path><path d="M77.26 316.64L125.7 314.79" stroke="hsl(132.3, 80.4%, 72.6%)" stroke-width="1.5"></path><path d="M77.26 316.64L73.05 372.35" stroke="hsl(132.3, 80.4%, 72.6%)" stroke-width="1.5"></path><path d="M77.26 316.64L32.58 370.38" stroke="hsl(132.3, 80.4%, 72.6%)" stroke-width="1.5"></path><path d="M77.26 316.64L118.35 377.06" stroke="hsl(132.3, 80.4%, 72.6%)" stroke-width="1.5"></path><path d="M73.05 372.35L73.05 372.35" stroke="hsl(132.3, 80.4%, 72.6%)" stroke-width="1.5"></path><path d="M73.05 372.35L118.35 377.06" stroke="hsl(132.3, 80.4%, 72.6%)" stroke-width="1.5"></path><path d="M73.05 372.35L69.38 428.06" stroke="hsl(132.3, 80.4%, 72.6%)" stroke-width="1.5"></path><path d="M73.05 372.35L28.91 413.18" stroke="hsl(132.3, 80.4%, 72.6%)" stroke-width="1.5"></path><path d="M73.05 372.35L25.18 329.92" stroke="hsl(132.3, 80.4%, 72.6%)" stroke-width="1.5"></path><path d="M69.38 428.06L69.38 428.06" stroke="hsl(132.3, 80.4%, 72.6%)" stroke-width="1.5"></path><path d="M69.38 428.06L127.06 419.21" stroke="hsl(132.3, 80.4%, 72.6%)" stroke-width="1.5"></path><path d="M69.38 428.06L32.58 370.38" stroke="hsl(132.3, 80.4%, 72.6%)" stroke-width="1.5"></path><path d="M125.7 314.79L125.7 314.79" stroke="hsl(132.3, 80.4%, 72.6%)" stroke-width="1.5"></path><path d="M125.7 314.79L167.37 328.76" stroke="hsl(132.3, 80.4%, 72.6%)" stroke-width="1.5"></path><path d="M125.7 314.79L167.41 283.92" stroke="hsl(132.3, 80.4%, 72.6%)" stroke-width="1.5"></path><path d="M125.7 314.79L118.35 377.06" stroke="hsl(132.3, 80.4%, 72.6%)" stroke-width="1.5"></path><path d="M125.7 314.79L166.51 371.57" stroke="hsl(132.3, 80.4%, 72.6%)" stroke-width="1.5"></path><path d="M118.35 377.06L118.35 377.06" stroke="hsl(132.3, 80.4%, 72.6%)" stroke-width="1.5"></path><path d="M118.35 377.06L127.06 419.21" stroke="hsl(132.3, 80.4%, 72.6%)" stroke-width="1.5"></path><path d="M118.35 377.06L166.51 371.57" stroke="hsl(132.3, 80.4%, 72.6%)" stroke-width="1.5"></path><path d="M127.06 419.21L127.06 419.21" stroke="hsl(132.3, 80.4%, 72.6%)" stroke-width="1.5"></path><path d="M127.06 419.21L176.09 420.31" stroke="hsl(132.3, 80.4%, 72.6%)" stroke-width="1.5"></path><path d="M127.06 419.21L166.51 371.57" stroke="hsl(132.3, 80.4%, 72.6%)" stroke-width="1.5"></path><path d="M127.06 419.21L73.05 372.35" stroke="hsl(132.3, 80.4%, 72.6%)" stroke-width="1.5"></path><path d="M127.06 419.21L28.91 413.18" stroke="hsl(132.3, 80.4%, 72.6%)" stroke-width="1.5"></path><path d="M167.41 283.92L167.41 283.92" stroke="hsl(132.3, 80.4%, 72.6%)" stroke-width="1.5"></path><path d="M167.41 283.92L167.37 328.76" stroke="hsl(132.3, 80.4%, 72.6%)" stroke-width="1.5"></path><path d="M167.41 283.92L216.19 271.68" stroke="hsl(132.3, 80.4%, 72.6%)" stroke-width="1.5"></path><path d="M167.41 283.92L233.47 333.68" stroke="hsl(132.3, 80.4%, 72.6%)" stroke-width="1.5"></path><path d="M167.37 328.76L167.37 328.76" stroke="hsl(132.3, 80.4%, 72.6%)" stroke-width="1.5"></path><path d="M167.37 328.76L166.51 371.57" stroke="hsl(132.3, 80.4%, 72.6%)" stroke-width="1.5"></path><path d="M166.51 371.57L166.51 371.57" stroke="hsl(132.3, 80.4%, 72.6%)" stroke-width="1.5"></path><path d="M166.51 371.57L176.09 420.31" stroke="hsl(132.3, 80.4%, 72.6%)" stroke-width="1.5"></path><path d="M166.51 371.57L222.95 375.28" stroke="hsl(132.3, 80.4%, 72.6%)" stroke-width="1.5"></path><path d="M176.09 420.31L176.09 420.31" stroke="hsl(132.3, 80.4%, 72.6%)" stroke-width="1.5"></path><path d="M216.19 271.68L216.19 271.68" stroke="hsl(132.3, 80.4%, 72.6%)" stroke-width="1.5"></path><path d="M216.19 271.68L233.47 333.68" stroke="hsl(132.3, 80.4%, 72.6%)" stroke-width="1.5"></path><path d="M216.19 271.68L270.5 236.48" stroke="hsl(132.3, 80.4%, 72.6%)" stroke-width="1.5"></path><path d="M216.19 271.68L167.37 328.76" stroke="hsl(132.3, 80.4%, 72.6%)" stroke-width="1.5"></path><path d="M233.47 333.68L233.47 333.68" stroke="hsl(132.3, 80.4%, 72.6%)" stroke-width="1.5"></path><path d="M233.47 333.68L222.95 375.28" stroke="hsl(132.3, 80.4%, 72.6%)" stroke-width="1.5"></path><path d="M233.47 333.68L281.88 312.53" stroke="hsl(132.3, 80.4%, 72.6%)" stroke-width="1.5"></path><path d="M222.95 375.28L222.95 375.28" stroke="hsl(132.3, 80.4%, 72.6%)" stroke-width="1.5"></path><path d="M222.95 375.28L234.65 416.74" stroke="hsl(132.3, 80.4%, 72.6%)" stroke-width="1.5"></path><path d="M234.65 416.74L234.65 416.74" stroke="hsl(132.3, 80.4%, 72.6%)" stroke-width="1.5"></path><path d="M234.65 416.74L271.82 416.32" stroke="hsl(132.3, 80.4%, 72.6%)" stroke-width="1.5"></path><path d="M234.65 416.74L176.09 420.31" stroke="hsl(132.3, 80.4%, 72.6%)" stroke-width="1.5"></path><path d="M279.64 185.91L279.64 185.91" stroke="hsl(132.3, 80.4%, 72.6%)" stroke-width="1.5"></path><path d="M270.5 236.48L270.5 236.48" stroke="hsl(132.3, 80.4%, 72.6%)" stroke-width="1.5"></path><path d="M270.5 236.48L279.64 185.91" stroke="hsl(132.3, 80.4%, 72.6%)" stroke-width="1.5"></path><path d="M270.5 236.48L321.5 217.27" stroke="hsl(132.3, 80.4%, 72.6%)" stroke-width="1.5"></path><path d="M270.5 236.48L330.09 275.87" stroke="hsl(132.3, 80.4%, 72.6%)" stroke-width="1.5"></path><path d="M270.5 236.48L281.88 312.53" stroke="hsl(132.3, 80.4%, 72.6%)" stroke-width="1.5"></path><path d="M281.88 312.53L281.88 312.53" stroke="hsl(132.3, 80.4%, 72.6%)" stroke-width="1.5"></path><path d="M281.88 312.53L327.53 316.22" stroke="hsl(132.3, 80.4%, 72.6%)" stroke-width="1.5"></path><path d="M281.88 312.53L273.83 368.37" stroke="hsl(132.3, 80.4%, 72.6%)" stroke-width="1.5"></path><path d="M273.83 368.37L273.83 368.37" stroke="hsl(132.3, 80.4%, 72.6%)" stroke-width="1.5"></path><path d="M273.83 368.37L271.82 416.32" stroke="hsl(132.3, 80.4%, 72.6%)" stroke-width="1.5"></path><path d="M273.83 368.37L222.95 375.28" stroke="hsl(132.3, 80.4%, 72.6%)" stroke-width="1.5"></path><path d="M273.83 368.37L233.47 333.68" stroke="hsl(132.3, 80.4%, 72.6%)" stroke-width="1.5"></path><path d="M273.83 368.37L331.92 385.8" stroke="hsl(132.3, 80.4%, 72.6%)" stroke-width="1.5"></path><path d="M271.82 416.32L271.82 416.32" stroke="hsl(132.3, 80.4%, 72.6%)" stroke-width="1.5"></path><path d="M326.11 -17.15L326.11 -17.15" stroke="hsl(132.3, 80.4%, 72.6%)" stroke-width="1.5"></path><path d="M326.11 -17.15L385.56 -17.78" stroke="hsl(132.3, 80.4%, 72.6%)" stroke-width="1.5"></path><path d="M326.11 -17.15L377.99 16.88" stroke="hsl(132.3, 80.4%, 72.6%)" stroke-width="1.5"></path><path d="M326.11 -17.15L327.64 74.41" stroke="hsl(132.3, 80.4%, 72.6%)" stroke-width="1.5"></path><path d="M326.11 -17.15L381.5 68.52" stroke="hsl(132.3, 80.4%, 72.6%)" stroke-width="1.5"></path><path d="M326.11 -17.15L414.59 33.72" stroke="hsl(132.3, 80.4%, 72.6%)" stroke-width="1.5"></path><path d="M326.11 -17.15L431.63 -28.72" stroke="hsl(132.3, 80.4%, 72.6%)" stroke-width="1.5"></path><path d="M323.24 129.09L323.24 129.09" stroke="hsl(132.3, 80.4%, 72.6%)" stroke-width="1.5"></path><path d="M323.24 129.09L365.26 120.61" stroke="hsl(132.3, 80.4%, 72.6%)" stroke-width="1.5"></path><path d="M323.24 129.09L319.99 173.79" stroke="hsl(132.3, 80.4%, 72.6%)" stroke-width="1.5"></path><path d="M321.5 217.27L321.5 217.27" stroke="hsl(132.3, 80.4%, 72.6%)" stroke-width="1.5"></path><path d="M321.5 217.27L370.64 224.19" stroke="hsl(132.3, 80.4%, 72.6%)" stroke-width="1.5"></path><path d="M321.5 217.27L279.64 185.91" stroke="hsl(132.3, 80.4%, 72.6%)" stroke-width="1.5"></path><path d="M321.5 217.27L383.14 182.06" stroke="hsl(132.3, 80.4%, 72.6%)" stroke-width="1.5"></path><path d="M327.53 316.22L327.53 316.22" stroke="hsl(132.3, 80.4%, 72.6%)" stroke-width="1.5"></path><path d="M327.53 316.22L371.62 334.3" stroke="hsl(132.3, 80.4%, 72.6%)" stroke-width="1.5"></path><path d="M327.53 316.22L378.01 268.4" stroke="hsl(132.3, 80.4%, 72.6%)" stroke-width="1.5"></path><path d="M327.53 316.22L331.92 385.8" stroke="hsl(132.3, 80.4%, 72.6%)" stroke-width="1.5"></path><path d="M327.53 316.22L273.83 368.37" stroke="hsl(132.3, 80.4%, 72.6%)" stroke-width="1.5"></path><path d="M331.92 385.8L331.92 385.8" stroke="hsl(132.3, 80.4%, 72.6%)" stroke-width="1.5"></path><path d="M331.92 385.8L371.62 334.3" stroke="hsl(132.3, 80.4%, 72.6%)" stroke-width="1.5"></path><path d="M331.92 385.8L271.82 416.32" stroke="hsl(132.3, 80.4%, 72.6%)" stroke-width="1.5"></path><path d="M331.92 385.8L382.33 431.48" stroke="hsl(132.3, 80.4%, 72.6%)" stroke-width="1.5"></path><path d="M385.56 -17.78L385.56 -17.78" stroke="hsl(132.3, 80.4%, 72.6%)" stroke-width="1.5"></path><path d="M385.56 -17.78L377.99 16.88" stroke="hsl(132.3, 80.4%, 72.6%)" stroke-width="1.5"></path><path d="M385.56 -17.78L414.59 33.72" stroke="hsl(132.3, 80.4%, 72.6%)" stroke-width="1.5"></path><path d="M377.99 16.88L377.99 16.88" stroke="hsl(132.3, 80.4%, 72.6%)" stroke-width="1.5"></path><path d="M381.5 68.52L381.5 68.52" stroke="hsl(132.3, 80.4%, 72.6%)" stroke-width="1.5"></path><path d="M381.5 68.52L414.59 33.72" stroke="hsl(132.3, 80.4%, 72.6%)" stroke-width="1.5"></path><path d="M365.26 120.61L365.26 120.61" stroke="hsl(132.3, 80.4%, 72.6%)" stroke-width="1.5"></path><path d="M365.26 120.61L381.5 68.52" stroke="hsl(132.3, 80.4%, 72.6%)" stroke-width="1.5"></path><path d="M365.26 120.61L327.64 74.41" stroke="hsl(132.3, 80.4%, 72.6%)" stroke-width="1.5"></path><path d="M365.26 120.61L383.14 182.06" stroke="hsl(132.3, 80.4%, 72.6%)" stroke-width="1.5"></path><path d="M383.14 182.06L383.14 182.06" stroke="hsl(132.3, 80.4%, 72.6%)" stroke-width="1.5"></path><path d="M383.14 182.06L370.64 224.19" stroke="hsl(132.3, 80.4%, 72.6%)" stroke-width="1.5"></path><path d="M383.14 182.06L319.99 173.79" stroke="hsl(132.3, 80.4%, 72.6%)" stroke-width="1.5"></path><path d="M383.14 182.06L421.85 233.5" stroke="hsl(132.3, 80.4%, 72.6%)" stroke-width="1.5"></path><path d="M370.64 224.19L370.64 224.19" stroke="hsl(132.3, 80.4%, 72.6%)" stroke-width="1.5"></path><path d="M370.64 224.19L378.01 268.4" stroke="hsl(132.3, 80.4%, 72.6%)" stroke-width="1.5"></path><path d="M370.64 224.19L421.85 233.5" stroke="hsl(132.3, 80.4%, 72.6%)" stroke-width="1.5"></path><path d="M378.01 268.4L378.01 268.4" stroke="hsl(132.3, 80.4%, 72.6%)" stroke-width="1.5"></path><path d="M378.01 268.4L421.94 269.03" stroke="hsl(132.3, 80.4%, 72.6%)" stroke-width="1.5"></path><path d="M371.62 334.3L371.62 334.3" stroke="hsl(132.3, 80.4%, 72.6%)" stroke-width="1.5"></path><path d="M371.62 334.3L424.23 327.76" stroke="hsl(132.3, 80.4%, 72.6%)" stroke-width="1.5"></path><path d="M382.33 431.48L382.33 431.48" stroke="hsl(132.3, 80.4%, 72.6%)" stroke-width="1.5"></path><path d="M382.33 431.48L435.87 416.86" stroke="hsl(132.3, 80.4%, 72.6%)" stroke-width="1.5"></path><path d="M414.59 33.72L414.59 33.72" stroke="hsl(132.3, 80.4%, 72.6%)" stroke-width="1.5"></path><path d="M414.59 33.72L377.99 16.88" stroke="hsl(132.3, 80.4%, 72.6%)" stroke-width="1.5"></path><path d="M421.85 233.5L421.85 233.5" stroke="hsl(132.3, 80.4%, 72.6%)" stroke-width="1.5"></path><path d="M421.85 233.5L421.94 269.03" stroke="hsl(132.3, 80.4%, 72.6%)" stroke-width="1.5"></path><path d="M421.94 269.03L421.94 269.03" stroke="hsl(132.3, 80.4%, 72.6%)" stroke-width="1.5"></path><path d="M421.94 269.03L424.23 327.76" stroke="hsl(132.3, 80.4%, 72.6%)" stroke-width="1.5"></path><path d="M421.94 269.03L370.64 224.19" stroke="hsl(132.3, 80.4%, 72.6%)" stroke-width="1.5"></path><path d="M421.94 269.03L371.62 334.3" stroke="hsl(132.3, 80.4%, 72.6%)" stroke-width="1.5"></path><path d="M424.23 327.76L424.23 327.76" stroke="hsl(132.3, 80.4%, 72.6%)" stroke-width="1.5"></path><path d="M424.23 327.76L431.88 375.09" stroke="hsl(132.3, 80.4%, 72.6%)" stroke-width="1.5"></path><path d="M424.23 327.76L378.01 268.4" stroke="hsl(132.3, 80.4%, 72.6%)" stroke-width="1.5"></path><path d="M431.88 375.09L431.88 375.09" stroke="hsl(132.3, 80.4%, 72.6%)" stroke-width="1.5"></path><path d="M431.88 375.09L435.87 416.86" stroke="hsl(132.3, 80.4%, 72.6%)" stroke-width="1.5"></path><path d="M435.87 416.86L435.87 416.86" stroke="hsl(132.3, 80.4%, 72.6%)" stroke-width="1.5"></path><path d="M435.87 416.86L424.23 327.76" stroke="hsl(132.3, 80.4%, 72.6%)" stroke-width="1.5"></path><path d="M435.87 416.86L371.62 334.3" stroke="hsl(132.3, 80.4%, 72.6%)" stroke-width="1.5"></path><path d="M435.87 416.86L331.92 385.8" stroke="hsl(132.3, 80.4%, 72.6%)" stroke-width="1.5"></path><circle r="25" cx="-23.19" cy="331.66" fill="url(#SvgjsRadialGradient1039)"></circle><circle r="25" cx="32.58" cy="370.38" fill="url(#SvgjsRadialGradient1039)"></circle><circle r="25" cx="28.91" cy="413.18" fill="url(#SvgjsRadialGradient1039)"></circle><circle r="25" cx="262.5" cy="277.68" fill="url(#SvgjsRadialGradient1039)"></circle><circle r="25" cx="327.64" cy="74.41" fill="url(#SvgjsRadialGradient1039)"></circle><circle r="25" cx="319.99" cy="173.79" fill="url(#SvgjsRadialGradient1039)"></circle><circle r="25" cx="330.09" cy="275.87" fill="url(#SvgjsRadialGradient1039)"></circle><circle r="25" cx="313.55" cy="432.07" fill="url(#SvgjsRadialGradient1039)"></circle><circle r="25" cx="431.63" cy="-28.72" fill="url(#SvgjsRadialGradient1039)"></circle><circle r="25" cx="429.97" cy="73.03" fill="url(#SvgjsRadialGradient1039)"></circle><circle r="25" cx="437.08" cy="183.05" fill="url(#SvgjsRadialGradient1039)"></circle><circle r="5" cx="-16.78" cy="370.68" fill="#9af4ac"></circle><circle r="5" cx="-29.33" cy="420.06" fill="#9af4ac"></circle><circle r="5" cx="25.18" cy="329.92" fill="#9af4ac"></circle><circle r="5" cx="77.26" cy="316.64" fill="#9af4ac"></circle><circle r="5" cx="73.05" cy="372.35" fill="#9af4ac"></circle><circle r="5" cx="69.38" cy="428.06" fill="#9af4ac"></circle><circle r="5" cx="125.7" cy="314.79" fill="#9af4ac"></circle><circle r="5" cx="118.35" cy="377.06" fill="#9af4ac"></circle><circle r="5" cx="127.06" cy="419.21" fill="#9af4ac"></circle><circle r="5" cx="167.41" cy="283.92" fill="#9af4ac"></circle><circle r="5" cx="167.37" cy="328.76" fill="#9af4ac"></circle><circle r="5" cx="166.51" cy="371.57" fill="#9af4ac"></circle><circle r="5" cx="176.09" cy="420.31" fill="#9af4ac"></circle><circle r="5" cx="216.19" cy="271.68" fill="#9af4ac"></circle><circle r="5" cx="233.47" cy="333.68" fill="#9af4ac"></circle><circle r="5" cx="222.95" cy="375.28" fill="#9af4ac"></circle><circle r="5" cx="234.65" cy="416.74" fill="#9af4ac"></circle><circle r="5" cx="279.64" cy="185.91" fill="#9af4ac"></circle><circle r="5" cx="270.5" cy="236.48" fill="#9af4ac"></circle><circle r="5" cx="281.88" cy="312.53" fill="#9af4ac"></circle><circle r="5" cx="273.83" cy="368.37" fill="#9af4ac"></circle><circle r="5" cx="271.82" cy="416.32" fill="#9af4ac"></circle><circle r="5" cx="326.11" cy="-17.15" fill="#9af4ac"></circle><circle r="5" cx="323.24" cy="129.09" fill="#9af4ac"></circle><circle r="5" cx="321.5" cy="217.27" fill="#9af4ac"></circle><circle r="5" cx="327.53" cy="316.22" fill="#9af4ac"></circle><circle r="5" cx="331.92" cy="385.8" fill="#9af4ac"></circle><circle r="5" cx="385.56" cy="-17.78" fill="#9af4ac"></circle><circle r="5" cx="377.99" cy="16.88" fill="#9af4ac"></circle><circle r="5" cx="381.5" cy="68.52" fill="#9af4ac"></circle><circle r="5" cx="365.26" cy="120.61" fill="#9af4ac"></circle><circle r="5" cx="383.14" cy="182.06" fill="#9af4ac"></circle><circle r="5" cx="370.64" cy="224.19" fill="#9af4ac"></circle><circle r="5" cx="378.01" cy="268.4" fill="#9af4ac"></circle><circle r="5" cx="371.62" cy="334.3" fill="#9af4ac"></circle><circle r="5" cx="382.33" cy="431.48" fill="#9af4ac"></circle><circle r="5" cx="414.59" cy="33.72" fill="#9af4ac"></circle><circle r="5" cx="421.85" cy="233.5" fill="#9af4ac"></circle><circle r="5" cx="421.94" cy="269.03" fill="#9af4ac"></circle><circle r="5" cx="424.23" cy="327.76" fill="#9af4ac"></circle><circle r="5" cx="431.88" cy="375.09" fill="#9af4ac"></circle><circle r="5" cx="435.87" cy="416.86" fill="#9af4ac"></circle></g><defs><mask id="SvgjsMask1038"><rect width="400" height="400" fill="#ffffff"></rect></mask><radialGradient id="SvgjsRadialGradient1039"><stop stop-color="#ffffff" offset="0.1"></stop><stop stop-color="rgba(52, 233, 89, 1)" offset="0.2"></stop><stop stop-color="rgba(52, 233, 89, 0)" offset="1"></stop></radialGradient></defs></svg>