<svg xmlns="http://www.w3.org/2000/svg" version="1.1" xmlns:xlink="http://www.w3.org/1999/xlink" xmlns:svgjs="http://svgjs.com/svgjs" width="1440" height="500" preserveAspectRatio="none" viewBox="0 0 1440 500"><g mask="url(&quot;#SvgjsMask1027&quot;)" fill="none"><rect width="1440" height="500" x="0" y="0" fill="rgba(0, 218, 99, 1)"></rect><path d="M15 500L515 0L693.5 0L193.5 500z" fill="url(#SvgjsLinearGradient1028)"></path><path d="M339.8 500L839.8 0L1289.8 0L789.8 500z" fill="url(#SvgjsLinearGradient1028)"></path><path d="M669.6 500L1169.6 0L1634.6 0L1134.6 500z" fill="url(#SvgjsLinearGradient1028)"></path><path d="M1381 500L881 0L695 0L1195 500z" fill="url(#SvgjsLinearGradient1029)"></path><path d="M1116.2 500L616.2 0L331.20000000000005 0L831.2 500z" fill="url(#SvgjsLinearGradient1029)"></path><path d="M750.4 500L250.39999999999998 0L-178.60000000000002 0L321.4 500z" fill="url(#SvgjsLinearGradient1029)"></path><path d="M946.8861251047607 500L1440 6.886125104760708L1440 500z" fill="url(#SvgjsLinearGradient1028)"></path><path d="M0 500L493.1138748952393 500L 0 6.886125104760708z" fill="url(#SvgjsLinearGradient1029)"></path></g><defs><mask id="SvgjsMask1027"><rect width="1440" height="500" fill="#ffffff"></rect></mask><linearGradient x1="0%" y1="100%" x2="100%" y2="0%" id="SvgjsLinearGradient1028"><stop stop-color="rgba(15, 70, 185, 0.2)" offset="0"></stop><stop stop-opacity="0" stop-color="rgba(15, 70, 185, 0.2)" offset="0.66"></stop></linearGradient><linearGradient x1="100%" y1="100%" x2="0%" y2="0%" id="SvgjsLinearGradient1029"><stop stop-color="rgba(15, 70, 185, 0.2)" offset="0"></stop><stop stop-opacity="0" stop-color="rgba(15, 70, 185, 0.2)" offset="0.66"></stop></linearGradient></defs></svg>