<svg xmlns="http://www.w3.org/2000/svg" version="1.1" xmlns:xlink="http://www.w3.org/1999/xlink" xmlns:svgjs="http://svgjs.com/svgjs" width="1440" height="250" preserveAspectRatio="none" viewBox="0 0 1440 250"><g mask="url(&quot;#SvgjsMask1011&quot;)" fill="none"><rect width="1440" height="250" x="0" y="0" fill="rgba(0, 218, 99, 1)"></rect><path d="M36 250L286 0L415 0L165 250z" fill="url(#SvgjsLinearGradient1012)"></path><path d="M248.60000000000002 250L498.6 0L716.1 0L466.1 250z" fill="url(#SvgjsLinearGradient1012)"></path><path d="M507.20000000000005 250L757.2 0L935.7 0L685.7 250z" fill="url(#SvgjsLinearGradient1012)"></path><path d="M729.8000000000001 250L979.8000000000001 0L1176.3000000000002 0L926.3000000000001 250z" fill="url(#SvgjsLinearGradient1012)"></path><path d="M1392 250L1142 0L866 0L1116 250z" fill="url(#SvgjsLinearGradient1013)"></path><path d="M1195.4 250L945.4000000000001 0L637.9000000000001 0L887.9000000000001 250z" fill="url(#SvgjsLinearGradient1013)"></path><path d="M959.8 250L709.8 0L570.3 0L820.3 250z" fill="url(#SvgjsLinearGradient1013)"></path><path d="M721.1999999999999 250L471.19999999999993 0L121.69999999999993 0L371.69999999999993 250z" fill="url(#SvgjsLinearGradient1013)"></path><path d="M1209.762006218749 250L1440 19.76200621874912L1440 250z" fill="url(#SvgjsLinearGradient1012)"></path><path d="M0 250L230.23799378125088 250L 0 19.76200621874912z" fill="url(#SvgjsLinearGradient1013)"></path></g><defs><mask id="SvgjsMask1011"><rect width="1440" height="250" fill="#ffffff"></rect></mask><linearGradient x1="0%" y1="100%" x2="100%" y2="0%" id="SvgjsLinearGradient1012"><stop stop-color="rgba(15, 70, 185, 0.2)" offset="0"></stop><stop stop-opacity="0" stop-color="rgba(15, 70, 185, 0.2)" offset="0.66"></stop></linearGradient><linearGradient x1="100%" y1="100%" x2="0%" y2="0%" id="SvgjsLinearGradient1013"><stop stop-color="rgba(15, 70, 185, 0.2)" offset="0"></stop><stop stop-opacity="0" stop-color="rgba(15, 70, 185, 0.2)" offset="0.66"></stop></linearGradient></defs></svg>